<?xml version="1.0" encoding="UTF-8" standalone="no"?>
<svg
   version="1.1"
   width="980"
   height="980"
   id="svg3"
   sodipodi:docname="linux-icon.svg"
   inkscape:version="1.4 (86a8ad7, 2024-10-11)"
   xmlns:inkscape="http://www.inkscape.org/namespaces/inkscape"
   xmlns:sodipodi="http://sodipodi.sourceforge.net/DTD/sodipodi-0.dtd"
   xmlns="http://www.w3.org/2000/svg"
   xmlns:svg="http://www.w3.org/2000/svg">
  <defs
     id="defs3" />
  <sodipodi:namedview
     id="namedview3"
     pagecolor="#ffffff"
     bordercolor="#000000"
     borderopacity="0.25"
     inkscape:showpageshadow="2"
     inkscape:pageopacity="0.0"
     inkscape:pagecheckerboard="0"
     inkscape:deskcolor="#d1d1d1"
     inkscape:zoom="1.288666"
     inkscape:cx="511.76952"
     inkscape:cy="437.27388"
     inkscape:window-width="1920"
     inkscape:window-height="1137"
     inkscape:window-x="1913"
     inkscape:window-y="1203"
     inkscape:window-maximized="1"
     inkscape:current-layer="svg3" />
  <path
     d="m 463.06153,-0.23828125 2.51886,-0.0296783 C 484.15122,-0.4416006 502.01138,-0.23909166 520.19044,4 l 2.85693,0.6494141 C 546.53597,10.133415 570.25046,19.451701 588.19044,36 l 1.63134,1.50293 c 13.34972,12.442672 23.87816,26.366105 32.33496,42.523437 1.01112,1.930537 2.04688,3.846295 3.08448,5.762696 14.03934,26.441947 21.41903,55.792507 21.04187,85.675597 -0.0515,4.33196 -0.0602,8.66406 -0.0731,12.99628 l -0.009,2.55453 C 645.98056,258.03559 667.27987,332.00141 713.19089,387 l 1.45996,1.75147 c 5.20559,6.21318 10.53795,12.29661 16.04004,18.24853 20.75976,22.51432 37.35337,47.22271 50.51513,74.94922 1.07502,2.23852 2.18672,4.4567 3.30127,6.67578 7.30846,14.71671 13.13852,29.91825 18.6836,45.375 l 1.23144,3.43164 c 8.94374,25.21382 15.97488,51.0581 19.76856,77.56836 l 0.29272,2.04517 c 3.16746,23.63636 4.36011,53.08563 -8.73022,74.00171 -2.76358,3.45447 -5.54578,5.03807 -9.6875,6.39062 -8.63188,3.72162 -13.99344,13.35932 -19.4375,20.6875 -12.5467,16.85344 -26.55763,29.45109 -47.76954,33.40625 -15.09851,1.92952 -31.11293,0.87415 -43.86718,-8.07422 -6.9723,-5.5518 -10.78922,-12.68334 -14.80078,-20.45703 -1.1697,-2.25288 -2.34105,-4.50483 -3.51758,-6.75415 -0.7589,-1.45682 -1.50944,-2.91805 -2.25,-4.38428 -3.44437,-6.67942 -7.38534,-12.30109 -14.23242,-15.86157 -4.47876,-0.47145 -8.05205,-0.25597 -12,2 -0.71622,1.30739 -1.37592,2.64621 -2,4 l -1.1836,2.15625 c -12.06206,22.54592 -7.85836,47.68473 -2.3164,71.46875 7.98666,34.51558 5.76497,67.69774 0.93188,102.50415 -2.65741,19.17313 -3.2981,40.20146 8.81812,56.55835 7.67633,9.20187 16.5866,15.56732 28.75,17.3125 23.9167,1.70469 43.11652,-6.30063 61.19189,-21.48193 3.22191,-2.70508 6.48462,-5.36034 9.74561,-8.01807 l 2.02905,-1.65405 c 26.61938,-21.58875 54.7905,-34.01094 86.88647,-45.37573 31.32702,-9.63551 31.32702,-9.63551 54.33448,-31.09522 1.13701,-4.72296 1.06269,-7.97444 -1.21485,-12.34766 -8.02135,-12.0669 -24.80286,-17.79216 -37.91015,-22.65234 -10.21282,-3.8298 -18.74623,-9.45816 -24.625,-18.8125 l -1.16431,-1.83691 c -8.037,-13.16473 -10.63003,-27.43827 -10.58569,-42.66309 l -0.0488,-3.3418 c -0.006,-9.5565 1.03233,-19.16673 7.36133,-26.7207 h 2 l 0.26171,3.41797 c 2.28073,26.64954 8.58101,53.07057 29.66797,71.25 5.6968,4.32695 11.8522,7.81664 18.07032,11.33203 27.216,15.45675 27.216,15.45675 31.63281,30.09766 1.35898,7.04067 -0.21147,12.75677 -3.63281,18.90234 -2.74373,3.61158 -5.77124,6.81975 -9,10 l -1.8711,1.86719 c -16.61218,15.5047 -39.59133,24.55939 -59.89013,34.26294 C 821.2404,903.43578 808.31582,909.7652 796.19092,918 l -1.80762,1.22266 C 780.47087,928.72681 767.10048,939.18541 754.19092,950 l -1.54493,1.2876 c -1.65454,1.37994 -3.30572,2.76376 -4.95507,4.1499 l -1.65845,1.39356 c -2.64895,2.24454 -5.24489,4.52043 -7.75952,6.91503 -17.8132,16.90873 -39.89609,16.93417 -63.19409,16.48638 -15.05251,-0.4195 -31.86025,-4.61439 -43.1731,-15.23638 -5.13249,-5.97426 -9.51728,-12.60697 -13.79688,-19.20703 -6.07941,-8.84054 -14.07315,-12.13905 -24.34741,-14.30005 -5.19793,-0.71189 -10.38892,-0.86057 -15.62915,-1.03979 l -3.60631,-0.12679 c -13.46512,-0.43915 -26.92627,-0.51957 -40.39759,-0.50993 l -3.9809,-1.8e-4 c -20.20682,0.007 -40.38584,0.37397 -60.5816,1.06268 l -3.61942,0.11881 c -11.33281,0.38214 -22.63524,0.86721 -33.92355,1.97103 l -2.38919,0.23276 c -23.12396,2.4692 -41.63958,13.20163 -60.31394,26.18912 -18.40633,12.78419 -34.67214,21.30116 -57.80835,18.10498 -9.08529,-1.64889 -17.67477,-3.97009 -26.39642,-6.98914 -2.2638,-0.7836 -4.5321,-1.55294 -6.80158,-2.31994 -7.80702,-2.6456 -15.59532,-5.34496 -23.38183,-8.05023 C 221.34849,948.4706 188.15658,939.4272 153.19092,933 86.554243,920.72526 86.554243,920.72526 74.573733,906.27344 c -4.8164,-7.91849 -4.50583,-17.23814 -2.54297,-26.03906 2.47437,-8.65587 5.95315,-17.01314 9.39258,-25.3208 l 0.99805,-2.41749 0.88745,-2.11938 c 2.19298,-5.90885 3.26926,-11.34061 3.25317,-17.63843 l -0.006,-2.3571 c -0.18337,-8.9988 -2.17361,-17.48845 -4.30308,-26.19368 -0.3788,-1.60959 -0.75576,-3.21962 -1.13086,-4.83008 -0.68329,-2.92643 -1.37765,-5.84974 -2.08374,-8.77075 -2.10429,-8.90126 -4.18685,-20.50217 -0.3479,-29.21167 3.987,-6.22797 9.28051,-9.36016 16.375,-11.125 7.018697,-1.3051 14.072237,-1.75409 21.187497,-2.25 19.3459,-1.36636 35.36214,-5.33694 49.6289,-19.32812 8.25508,-9.5541 9.77606,-20.57291 11.3086,-32.67188 5.59201,8.38803 4.6133,20.37983 2.8125,29.875 -2.84342,12.51371 -8.34388,20.86965 -18.8125,28.26172 -14.98898,9.30956 -33.53143,9.0956 -50.54297,8.64844 -6.58073,-0.0847 -11.517157,0.28644 -17.457027,3.21484 -3.23333,3.31416 -4.26506,6.03974 -4.5,10.5625 0.58252,12.2512 6.59658,23.46376 11.594227,34.42871 3.78144,8.38644 6.04595,15.29334 6.21827,24.57129 l 0.11328,3.94141 c -0.48733,10.22229 -5.82416,19.97473 -10.113277,29.05859 -0.98432,2.10489 -1.96745,4.21033 -2.94922,6.31641 l -1.30347,2.76782 c -2.45477,5.45071 -2.75444,10.44897 -2.05981,16.35327 3.18046,6.13376 8.43437,8.15701 14.806907,10.31683 4.32406,1.34699 8.72298,2.38621 13.12668,3.43708 l 3.27861,0.78395 c 15.66468,3.67921 31.48345,6.64778 47.27779,9.70946 28.29708,5.49274 55.96269,12.34184 83.51001,20.87768 48.46244,16.31324 48.46244,16.31324 97.5,8.1875 11.37674,-6.31866 18.35051,-14.40537 22.30468,-26.84375 6.51027,-27.46798 -7.51203,-59.85393 -21.48437,-83.00781 -2.4893,-4.00808 -5.06409,-7.95848 -7.65283,-11.90283 -1.69305,-2.59733 -3.35406,-5.21264 -5.00733,-7.83545 -8.78071,-13.90199 -17.852,-27.60463 -26.97265,-41.28516 l -1.80445,-2.70804 C 295.06729,752.49699 295.06729,752.49699 280.19043,731.875 l -1.49585,-1.97558 c -1.49638,-1.97036 -2.99947,-3.9354 -4.50415,-5.89942 l -1.42237,-1.86816 C 266.31682,713.6763 259.5369,705.69036 252.19043,698 l -1.39112,-1.47363 C 242.63882,687.9114 234.12926,680.7633 223.19043,676 l -2.8125,-1.25 c -9.13794,-2.1501 -15.29938,-0.81503 -23.36328,3.9375 -3.17832,1.47706 -5.36097,1.55805 -8.82422,1.3125 -7.83709,-14.31119 -5.56492,-36.59286 -1.30469,-51.92969 3.77503,-12.20381 9.71046,-22.90882 16.42163,-33.74316 7.98477,-13.02195 13.3556,-26.81565 18.44809,-41.14819 1.72896,-4.86026 3.48684,-9.71008 5.23965,-14.56177 l 1.07079,-2.96942 c 28.77917,-79.78887 28.77917,-79.78887 56.00734,-109.96027 4.03816,-4.52162 7.70262,-9.25239 11.30469,-14.125 l 1.95922,-2.63574 c 1.95663,-2.63822 3.90572,-5.28185 5.85328,-7.92676 l 1.69336,-2.2876 C 319.22127,379.31488 332.91499,359.35292 344.19043,338 l 1.08691,-2.05371 c 7.57316,-14.68756 4.64182,-29.80762 3.31754,-45.74933 -1.95102,-23.62906 -3.40732,-47.24302 -4.31589,-70.93384 -0.0832,-2.12618 -0.17221,-4.25203 -0.26386,-6.37786 -0.80183,-18.98951 -0.97391,-37.98955 -1.05487,-56.99399 -0.0116,-2.67725 -0.0308,-5.3541 -0.0538,-8.03131 -0.17288,-21.65795 0.525,-43.10181 7.284,-63.85996 l 0.63623,-1.954101 C 355.57815,67.75355 362.29125,55.43563 372.19046,44 l 1.89453,-2.296875 C 379.18789,35.675254 384.94418,30.809459 391.19046,26 l 2.58593,-2.027344 C 414.13384,8.5364415 437.39509,0.01230905 463.06153,-0.23828125 Z M 489.042,155.53125 c -8.68364,11.57819 -11.21126,23.43799 -11.10156,37.59375 l 0.0117,3.62427 c 0.0807,8.23724 0.56439,16.16517 2.2383,24.25073 l -1.97657,-1.05859 -2.64843,-1.37891 -2.60157,-1.37109 c -6.70602,-2.88076 -13.73593,-2.27719 -20.89843,-2.19141 -2.14839,0.0256 -4.29684,0.0466 -6.44532,0.0625 l -2.86767,0.0352 c -2.35211,-0.0897 -4.31505,-0.42641 -6.56201,-1.09766 l -0.12012,-2.02515 c -1.75005,-33.06723 -9.98074,-55.29007 -18.37988,-60.78735 -6.01523,-4.68195 -11.79489,-7.01305 -19.5,-6.1875 -8.43755,2.23062 -13.38413,6.73661 -18.22657,13.89453 -10.53725,18.4518 -11.70767,37.70536 -6.38086,57.94727 2.2707,8.06791 4.99397,15.82507 10.60743,22.1582 1.89225,0.94703 1.89225,0.94703 4,1 3.78645,-2.08529 6.59644,-4.76243 7.9375,-8.875 l 0.0625,-2.125 -3.75,-1.1875 c -4.06781,-1.5684 -5.99647,-2.9493 -8.25,-6.8125 -4.89835,-11.3417 -6.92274,-23.0545 -3,-35 3.15329,-5.76291 6.46938,-9.09927 12.6875,-11.3125 5.54659,-1.14071 11.15744,-1.23445 16.32812,1.30078 7.59678,5.5985 10.31132,15.98918 11.71485,24.92188 0.55417,6.35288 0.41338,12.7202 0.26953,19.08984 l -1.63282,0.67969 c -3.12485,1.7429 -5.6309,4.03112 -8.24218,6.44531 l -1.63062,1.49121 c -2.88803,2.69637 -5.35056,5.33401 -7.55688,8.63379 -4.07295,5.85262 -10.56404,8.86241 -16.66016,12.27344 -8.04918,4.58913 -13.3526,9.53983 -16.27734,18.47656 -0.50173,3.58376 -0.40432,5.28326 1.375,8.4375 3.11317,3.03905 6.50945,5.30747 10.10156,7.74609 5.04556,3.63187 8.97078,8.15183 12.96094,12.87891 8.60592,9.84624 17.52673,12.80579 30.4375,13.75 23.963,1.24662 46.78446,-5.14258 69.5625,-11.75 l 2.1578,-0.62085 c 17.45709,-5.04929 34.62798,-10.2261 46.62735,-24.60571 1.77735,-1.83594 1.77735,-1.83594 5.02735,-3.08594 3.32175,0.30198 4.55397,0.72863 6.75,3.25 1.14502,3.5114 1.30868,5.2626 -0.125,8.6875 -3.71588,4.58291 -8.51314,5.93424 -13.96753,7.60742 -12.25053,3.76085 -23.87884,8.55657 -35.59497,13.70508 -1.61896,0.70914 -3.23802,1.41804 -4.85718,2.12671 l -2.39079,1.04649 -2.3536,1.02993 -2.31684,1.01417 c -30.39306,13.28036 -57.30254,17.5161 -90.39409,12.7827 1.98524,5.78529 5.54674,8.96671 10,13 l 1.88281,1.70703 c 11.57058,9.56147 25.83685,9.47618 40.11719,8.29297 21.78815,-2.71939 42.34865,-15.41492 61.12524,-26.01074 21.85113,-12.30179 21.85113,-12.30179 30.87476,-10.98926 2,1.125 2,1.125 3,3 0.75,2.8125 0.75,2.8125 0,6 -5.00309,4.96274 -12.17522,7.62874 -18.43189,10.6958 -15.09224,7.45343 -29.00569,16.3738 -42.56811,26.3042 -41.26213,30.10515 -41.26213,30.10515 -60,28 -20.21081,-6.30497 -32.38391,-29.31958 -43.44898,-45.92432 -2.25602,-3.35419 -4.46904,-6.43681 -7.55102,-9.07568 h -2 c -1.36866,2.73731 -1.15237,5.06351 -1.25,8.125 -1.29186,18.91506 -10.81543,35.66453 -19.8125,51.9375 -10.23927,18.53551 -20.02615,38.01744 -15.07032,59.73828 0.67336,2.16999 1.38792,4.32804 2.16016,6.46485 0.91648,2.57644 1.50632,5.04436 1.97266,7.73437 l -1.4336,1.10938 c -33.22063,27.19818 -52.88055,86.62153 -58.28372,128.0332 -1.14947,11.61901 -0.75941,23.42765 -0.79391,35.09058 -0.0158,3.69199 -0.0488,7.38357 -0.0825,11.07543 l 0.009,3.36876 c -1.17672,9.98031 -3.78319,22.24907 -5.58141,27.78094 -7.34723,-3.89955 -7.98127,-4.34402 -12.83399,-8.45829 -15.35849,-14.69072 -19.75692,-39.06707 -20.25,-59.4375 0.13609,-6.91971 1.12214,-13.78882 2.00634,-20.64502 0.31647,-2.49048 0.59661,-4.98429 0.86866,-7.47998 l 0.375,-3.4375 c -3.14419,0.67856 -3.14419,0.67856 -4.28125,3.23047 -10.02172,24.3155 -7.90139,47.7191 0.0937,72.20703 l 0.96679,2.97705 c 3.14078,9.1792 6.84423,18.32513 14.40821,24.71045 l 2.86328,2.46094 c 3.84696,3.14891 7.71572,6.27037 11.58594,9.39062 1.92028,1.64415 3.49194,3.17774 5.05078,5.14844 2.444,3.03849 5.06126,5.37864 8.01953,7.89844 2.58716,2.23016 5.09371,4.53688 7.60547,6.85156 5.40197,4.92097 10.99707,9.54366 16.6875,14.125 1.24151,1.00964 2.48236,2.02011 3.72265,3.03125 11.32775,9.23275 22.70528,18.40089 34.21485,27.40625 6.49432,5.08388 12.90396,10.26809 19.28906,15.48828 2.31382,1.89127 4.63824,3.76618 6.98437,5.61719 9.09981,7.24245 16.21339,13.71319 18.78907,25.45703 1.08504,10.23391 -0.0958,19.3704 -6.1875,27.8125 -6.80106,8.03119 -14.84709,10.46828 -24.8125,13.1875 4.23045,7.85122 8.7599,15.22288 14,22.4375 15.32748,21.30472 19.70433,42.61501 21,68.5625 5.45598,-3.10726 8.95378,-6.35954 11.3125,-12.3125 2.72722,-14.62785 -2.66322,-28.34974 -10.3125,-40.6875 -2.24569,-3.06389 -4.72208,-5.88939 -7.3125,-8.66797 -1.6875,-2.33203 -1.6875,-2.33203 -2.09766,-4.99219 0.41016,-2.33984 0.41016,-2.33984 2.97266,-4.58984 3.7114,-1.88944 6.27722,-2.67436 10.4375,-2.75 2.65813,1.09052 4.4703,2.48524 6.52343,4.48047 16.90096,16.12602 42.28224,20.18637 64.82422,19.70312 23.31948,-1.1722 46.60727,-4.17156 68.65235,-12.18359 l 1.89013,-0.6748 c 13.72155,-4.95219 26.12904,-11.60099 37.10987,-21.3252 l 1.96875,-1.68359 c 5.49201,-5.05311 9.56766,-11.08973 13.73193,-17.23804 3.52746,-5.17498 7.0232,-9.56096 12.29932,-13.07837 2.5,-0.4375 2.5,-0.4375 5,0 7.45299,9.81434 5.49097,27.36836 4,39 -2.01449,12.11121 -6.00529,23.76892 -9.82618,35.40943 -4.86573,13.65393 -4.86573,13.65393 -4.29882,27.71557 2.79471,3.78108 5.61315,4.86918 10.125,5.875 h 2 c 2.51107,-13.13753 5.0144,-26.27651 7.50933,-39.41711 0.44204,-2.32691 0.8849,-4.65366 1.32807,-6.98035 1.26888,-6.67487 2.51766,-13.35228 3.70605,-20.04199 0.27812,-1.55981 0.56155,-3.11869 0.8545,-4.67578 4.7057,-25.26431 0.65643,-50.66329 -2.9878,-75.75586 -3.67534,-25.32541 -6.38718,-54.2898 9.58985,-76.12891 7.61789,-8.49619 17.12684,-9.59113 28,-11 l 0.44531,-2.30859 c 2.17686,-10.02108 5.75177,-17.498 14.35547,-23.41407 16.76538,-9.73762 39.08791,-9.86557 57.47241,-5.13134 6.56275,1.89425 12.68064,4.69948 18.72681,7.854 -3.79799,-11.2222 -18.13281,-16.00409 -28,-21 1.28715,-7.54509 2.85258,-15.00007 4.59082,-22.45264 5.0263,-21.96951 2.94946,-44.69962 -1.59082,-66.54736 -0.38862,-1.95821 -0.77721,-3.91643 -1.16544,-5.87472 -8.39048,-42.0182 -26.86897,-85.15182 -61.83456,-112.12528 1.28795,2.69021 2.69915,5.14033 4.39843,7.58984 33.54109,48.94955 61.32742,111.86784 51.35157,172.53516 -1.98519,10.56613 -5.051,21.85445 -13.375,29.1875 -9.2007,4.60035 -19.69874,6.59162 -29.75,3.6875 -4.61126,-2.02215 -6.67463,-5.4967 -8.625,-10 -3.97027,-11.34362 -3.0937,-24.6567 -3.33048,-36.5021 -1.03172,-47.74265 -7.88431,-108.32547 -39.66952,-146.4979 l -1.88672,-1.30786 c -7.3487,-5.17287 -8.59732,-12.49012 -10.53278,-20.77698 -0.98217,-4.19201 -2.06454,-8.35832 -3.13519,-12.52844 l -0.6301,-2.48349 c -5.96678,-23.30491 -15.83112,-44.69404 -29.87771,-64.16495 -10.7676,-14.92611 -19.65137,-30.55391 -16.9375,-49.73828 0.8938,-4.35957 1.94206,-8.67771 3,-13 4.24219,-14.77154 4.24219,-14.77154 1.83984,-29.43359 -5.81551,-7.78736 -15.49881,-10.05796 -24.52734,-12.12891 -10.73971,-2.68492 -20.3771,-8.05158 -30.22901,-12.98071 -4.13693,-1.95448 -8.3811,-3.58214 -12.67163,-5.16724 -2.79784,-1.49592 -3.52641,-2.55813 -4.66186,-5.47705 -2.78998,-14.81346 -1.64539,-30.91694 6.63281,-43.74609 2.95508,-3.77593 6.05795,-5.54666 10.61719,-7.06641 9.42607,-0.74895 18.19237,-1.12392 26,5 7.91731,7.76241 11.20135,18.8047 11.3125,29.625 0.0498,6.11449 -0.76627,10.66895 -3.41016,16.25781 -1.34393,3.1533 -1.38212,5.75878 -0.90234,9.11719 0.87129,2.03882 0.87129,2.03882 3,3 6.26845,1.51308 11.19691,0.88438 17,-2 3.09272,-2.09626 3.84866,-4.87098 4.62939,-8.43506 3.38673,-23.43941 0.4131,-49.62687 -13.83008,-69.21631 -7.46632,-9.3093 -19.00469,-15.21065 -30.84992,-16.58695 -14.51711,-0.47638 -30.09478,5.06687 -40.09765,15.76953 z"
     fill="#030303"
     id="path1"
     sodipodi:nodetypes="ccccccccccccccccccsccccccccccccccccccccccccccccccccccccccccccsccccccccccccccccscccccccccccccccccccccccccccccccccccccccccccccccccccccccccccccccccccccscccccccccccccccccccccccccccccccccccccccccccccccccccsccccccccccccccccccccccccccccccccccccccccccccccccccccccccccccccccccccccccccccccccccccccccccccccccccccccccccccccccccccccc"
     style="fill:#98b3d3;fill-opacity:1" />
  <path
     d="m 433.19044,224 c -2,2 -2,2 -4.375,3.1875 -3.54424,2.44721 -4.68089,4.99628 -6.625,8.8125 -1.66612,0.0427 -3.33383,0.0406 -5,0 -1,-1 -1,-1 -1.375,-3.8125 0.375,-3.1875 0.375,-3.1875 2.625,-5.5 4.9718,-3.05087 9.02502,-2.78292 14.75,-2.6875 z"
     fill="#282828"
     id="path2"
     style="fill:#98b3d3;fill-opacity:1" />
  <path
     d="m 473.19044,223.6875 c 1.57781,0.006 1.57781,0.006 3.1875,0.0117 2.8125,0.3008 2.8125,0.3008 5.8125,2.3008 0.8125,1.9375 0.8125,1.9375 1,4 -0.99,1.485 -0.99,1.485 -2,3 -5.51713,-0.50156 -5.51713,-0.50156 -7.9375,-3 -2.81819,-2.73279 -5.23896,-2.70588 -9.0625,-3 2.61677,-3.44359 4.81739,-3.37913 9,-3.3125 z"
     fill="#282828"
     id="path3"
     style="fill:#98b3d3;fill-opacity:1" />
</svg>
