<?xml version="1.0" encoding="UTF-8" standalone="no"?>
<svg
   version="1.1"
   width="800"
   height="800"
   id="svg10"
   sodipodi:docname="dxvk.svg"
   inkscape:version="1.4 (86a8ad7, 2024-10-11)"
   xmlns:inkscape="http://www.inkscape.org/namespaces/inkscape"
   xmlns:sodipodi="http://sodipodi.sourceforge.net/DTD/sodipodi-0.dtd"
   xmlns="http://www.w3.org/2000/svg"
   xmlns:svg="http://www.w3.org/2000/svg">
  <defs
     id="defs10" />
  <sodipodi:namedview
     id="namedview10"
     pagecolor="#ffffff"
     bordercolor="#000000"
     borderopacity="0.25"
     inkscape:showpageshadow="2"
     inkscape:pageopacity="0.0"
     inkscape:pagecheckerboard="0"
     inkscape:deskcolor="#d1d1d1"
     inkscape:zoom="0.70710678"
     inkscape:cx="320.31937"
     inkscape:cy="490.025"
     inkscape:window-width="1920"
     inkscape:window-height="1137"
     inkscape:window-x="1913"
     inkscape:window-y="1203"
     inkscape:window-maximized="1"
     inkscape:current-layer="svg10" />
  <path
     d="M 0,0 H 800 V 800 H 0 Z"
     fill="#001548"
     id="path1"
     sodipodi:nodetypes="ccccc" />
  <path
     d="M 22.818368,-0.49492425 C 123.09676,175.67751 276.90548,443.38364 298.8125,481.1875 c -6.98765,13.38548 -14.59438,26.04016 -22,39 h -556 c -6.89133,-12.06498 -14.60172,-24.1487 -21.75,-36.0625 91.24825,-160.26946 182.72547,-323.5314 274.09019,-482.7818408 1.028031,-1.79187765 1.034057,-1.79530717 1.034616,-1.79449196 0,0 0.623853,0.020345 1.381475,0.0249101 7.201597,0.0433934 37.102461,-0.0630757 47.249587,-0.0685016 z"
     fill="#fefefe"
     transform="translate(403.1875,55.8125)"
     id="path2"
     sodipodi:nodetypes="cccccscsc" />
  <path
     d="M 0,0 C 43.037226,74.107706 0.23214973,2.1476433 128,222 H -64 c -28.954596,50.99339 -0.125709,0.14807 -29,51 H 11 c -34.360608,60.74639 -0.0766,0.0629 -34.308058,60.81066 0,0 0.242886,0.19515 -169.668652,-0.34727 C 0.56620748,-1.3124089 -193.02209,333.45934 0,0 Z"
     fill="#001548"
     transform="translate(341,204)"
     id="path3"
     sodipodi:nodetypes="cccccccc" />
  <path
     d="M 0,0 C 174.02501,302.02283 169.46772,294.01977 254,441 H -25 C -13.393545,420.52921 -1.8879043,400.49018 9.609375,379.96875 57.936981,379.72392 106.66879,379.94645 155,380.00011 91.47031,270.2319 30.129678,163.69912 -31.663407,55.367724 0.08530493,-0.00413042 -31.735534,55.42077 0,0 Z"
     fill="#001548"
     transform="translate(402,97)"
     id="path4"
     sodipodi:nodetypes="ccccccc" />
  <path
     d="m 0,0 c 58.230769,0 58.230769,0 69,10 8.646079,9.366586 8.463386,20.688993 8.433594,32.714844 0.0158,14.265653 -0.01925,28.532877 0.08102,42.798445 C 77.599944,98.170166 75.917855,108.39616 67,118 58.236462,126.08942 45.804094,126.03751 33.061983,125.96038 21.022912,125.8875 8.6738025,126 0,126 Z"
     fill="#fefefe"
     transform="translate(221,610)"
     id="path5"
     sodipodi:nodetypes="cccccscc" />
  <path
     d="m 0,0 h 16 l 0.301777,61.967291 C 66.249653,-0.07147295 16.350598,62.494599 66.183105,-0.10351562 71.599226,-0.0699718 76.332529,-0.11402203 82.03125,-0.0625 44.003879,52.446715 81.936559,-0.01450378 44,52 c 44.063458,72.92451 0.07675,0.05258 44.125,73.90625 -19.230336,0.0593 2.809802,0.0181 -19.230469,0.0557 -35.239286,-60.689852 0.0034,0.031 -35.329429,-60.751164 0,0 0.05201,0.233014 -17.084104,19.486322 C 15.87179,126.13182 16.428368,84.655218 16,126 H 0 Z"
     fill="#fefefe"
     transform="translate(508,610)"
     id="path6"
     sodipodi:nodetypes="ccccccccccccc" />
  <path
     d="M 0,0 H 19 C 43.220258,48.211288 19.010856,0.05071286 43.237437,48.237437 65.962935,0.10890655 43.324633,48.380314 66,0 85.147526,-0.05579415 66.030777,-0.0243759 85.132583,-0.03293199 54.993208,63.142829 85.091375,1.7888397 55,63.130743 c 29.805417,64.062357 0.0012,0.03307 29.955806,62.907817 -19.958625,-0.01 0.0071,0.0117 -19.955806,-0.0386 -7.345549,-15.66095 0.06068,0.0523 -22,-47 -23.835654,46.87472 -0.12761,0.140452 -24,47 H 0 C 31.273197,63.720557 -0.03048328,125.96346 31.441394,63.719029 0.09923075,0.18997463 31.470614,63.763188 0,0 Z"
     fill="#fefefe"
     transform="translate(314,610)"
     id="path7"
     sodipodi:nodetypes="ccccccccccccc" />
  <path
     d="M 3.8623236,-0.46024756 C 12.030261,-0.49570252 17.640058,0.61293328 24.6875,4.9375 c 7.280831,7.483077 6.843769,15.902839 6.78125,25.6875 0.03382,13.143482 -0.04973,26.286904 0.01392,39.430359 0.07982,16.000827 0.07982,16.000827 -5.886123,22.7005 C 18.358846,99.489843 9.2957595,98.529833 0.0625,98.4375 c -11.031834,-0.0058 -1.8684984,-0.02304 -14.34375,-0.04692 -0.15693,-97.42610414 0.05411,-1.196135 0.12734,-98.80159101 14.12564827,0.0356417 0.02157,-0.00477 18.0162306,-0.0492345 z"
     fill="#001548"
     transform="translate(251.0625,623.75)"
     id="path8"
     sodipodi:nodetypes="cccccccccc" />
  <path
     d="M 0,0 H 17 C 43.879452,95.998743 16.994,-0.15836464 44,96 71.058115,-0.06850888 43.93988,96.3444 71,0 76.665587,-0.13395673 82.333741,-0.05253546 88,0 49.830328,126.07 87.98007,0.09216037 50,126 c -4.442532,-0.004 0.01115,0.007 -13,0 C 0.03337381,-0.25464385 36.862109,126.02578 0,0 Z"
     fill="#fefefe"
     transform="translate(404,610)"
     id="path9"
     sodipodi:nodetypes="cccccccc" />
  <path
     d="M 0,0 C 14.89938,25.463181 14.270732,24.416462 39,67 H -38 C -25.848506,46.130624 -10.070384,17.837301 0,0 Z"
     fill="#fefefe"
     transform="translate(344,309)"
     id="path10"
     sodipodi:nodetypes="cccc" />
</svg>
