<?xml version="1.0" encoding="UTF-8" standalone="no"?>
<svg
   id="Layer_2"
   data-name="Layer 2"
   viewBox="0 0 24 24"
   version="1.1"
   sodipodi:docname="chief.svg"
   inkscape:version="1.4 (86a8ad7, 2024-10-11)"
   xmlns:inkscape="http://www.inkscape.org/namespaces/inkscape"
   xmlns:sodipodi="http://sodipodi.sourceforge.net/DTD/sodipodi-0.dtd"
   xmlns="http://www.w3.org/2000/svg"
   xmlns:svg="http://www.w3.org/2000/svg">
  <sodipodi:namedview
     id="namedview1"
     pagecolor="#ffffff"
     bordercolor="#000000"
     borderopacity="0.25"
     inkscape:showpageshadow="2"
     inkscape:pageopacity="0.0"
     inkscape:pagecheckerboard="0"
     inkscape:deskcolor="#d1d1d1"
     inkscape:zoom="37.208333"
     inkscape:cx="12"
     inkscape:cy="12"
     inkscape:window-width="960"
     inkscape:window-height="1177"
     inkscape:window-x="4792"
     inkscape:window-y="1192"
     inkscape:window-maximized="0"
     inkscape:current-layer="Layer_2" />
  <defs
     id="defs1">
    <style
       id="style1">
      .cls-1 {
        fill: none;
      }

      .cls-2 {
        fill: #e7e8e8;
        fill-rule: evenodd;
      }
    </style>
  </defs>
  <g
     id="Layer_1-2"
     data-name="Layer 1">
    <g
       id="g1">
      <path
         class="cls-2"
         d="M21.07,12.94l-.66-.61-.26-5.73-1.49-1.14-1.05-2.93-3.1-1.36h-4.98l-3.1,1.49-1.05,2.93-1.49.96-.26,5.86-.61.57-.04,3.5s5.24,5.01,6.53,6.24c.21.26.15.29.59.27h3.83c.43.02.5-.05.6-.22,1.18-1.15,6.59-6.38,6.59-6.38l-.04-3.45ZM4.11,13.33c.5,0,.66.94,0,.94s-.5-.94,0-.94ZM4.2,16c-.59,0-.59-.9-.02-.9s.61.9.02.9ZM14.22,21.24c-.12-.81.05-2.36-.09-2.54-.14-.14-3.77,0-4,0-.16.14.02,2.52-.09,2.52s-.55-2.47-.6-3.54c.3.09.42.42.65.51,1.5-.09,3.4-.05,4.07-.02.14-.05.35-.37.55-.49-.09,1.29-.32,3.26-.49,3.56ZM13.89,16.66c-.22.22-.6.56-.6.56h-2.72s-.34-.59-.35-.61c-5.68-.61-4.68-6.64-4.94-8.13h13.46c-.09,1.27.61,7.65-4.85,8.17ZM19.79,16.13c-.68,0-.58-1.11.01-1.11s.67,1.11-.01,1.11ZM19.86,14.34c-.55-.01-.63-1.02-.01-1.02s.56,1.03.01,1.02Z"
         id="path1" />
      <rect
         class="cls-1"
         width="24"
         height="24"
         id="rect1" />
    </g>
  </g>
  <path
     style="fill:#97b2d2;fill-opacity:1;stroke:#97b2d2;stroke-width:0.0268757"
     d="M 9.7350797,22.96071 C 9.7162492,22.953136 9.6618259,22.895884 9.614139,22.833482 9.5664521,22.771081 8.1305711,21.386054 6.4232923,19.755645 4.7160134,18.125236 3.2447249,16.717038 3.1537622,16.626316 L 2.9883755,16.461366 3.0104495,14.727884 3.0325235,12.994401 3.3395122,12.698768 3.646501,12.403135 3.7734079,9.4871221 C 3.8432058,7.8833147 3.9086336,6.5627489 3.918802,6.5525313 3.9289704,6.5423137 4.2638298,6.3236431 4.6629339,6.0665966 L 5.3885778,5.5992395 5.9025842,4.1635617 C 6.1852878,3.3739387 6.4332161,2.7080769 6.453536,2.6838687 6.4738559,2.6596606 7.1748309,2.3119562 8.0112578,1.9111923 L 9.532034,1.1825308 h 2.489171 2.489171 l 1.539885,0.6749656 c 0.846936,0.3712311 1.542586,0.6772919 1.545887,0.680135 0.0033,0.00284 0.231396,0.6333751 0.506876,1.4011822 0.27548,0.767807 0.511866,1.4265342 0.525301,1.4638382 0.01575,0.043739 0.286301,0.2678852 0.761858,0.6311914 l 0.737431,0.5633663 0.01393,0.1347658 c 0.0077,0.074121 0.0682,1.3623136 0.134544,2.8626496 l 0.120619,2.7278831 0.336846,0.322509 0.336846,0.322508 0.01267,1.720045 0.01267,1.720045 -0.422443,0.404525 c -1.054106,1.009396 -5.492202,5.306705 -5.877021,5.690588 -0.235853,0.235279 -0.457356,0.438628 -0.492231,0.451887 -0.0656,0.02494 -4.5073581,0.03087 -4.5689513,0.0061 z m 0.3448563,-2.892867 c 8.52e-4,-0.623652 0.01009,-1.182289 0.02054,-1.241415 l 0.01899,-0.107503 0.416189,-0.01681 c 0.228905,-0.0092 0.990658,-0.02614 1.692785,-0.03754 1.232929,-0.02002 1.803329,-0.0072 1.883387,0.04217 0.03182,0.01964 0.04048,0.228534 0.05166,1.246112 0.01425,1.296686 0.02948,1.441126 0.120293,1.141189 0.105603,-0.348777 0.284977,-1.635407 0.376088,-2.69763 0.02282,-0.26607 0.04723,-0.535163 0.05424,-0.597985 0.0082,-0.07341 0.0021,-0.114221 -0.01708,-0.114221 -0.0164,0 -0.13661,0.104497 -0.267128,0.232215 l -0.237305,0.232216 -0.585662,-0.01049 c -0.903978,-0.01619 -1.961335,-0.0125 -2.798291,0.0098 L 10.0473,18.168211 9.8136273,17.943415 c -0.2169197,-0.208678 -0.3345864,-0.286927 -0.373282,-0.248231 -0.065297,0.0653 0.2641164,2.300508 0.4649598,3.154956 0.070339,0.299241 0.1076289,0.3921 0.1475499,0.367428 0.01543,-0.0095 0.02614,-0.464455 0.02708,-1.149689 z m 3.529025,-3.12228 0.305158,-0.28176 0.198596,-0.02758 c 2.319657,-0.322156 3.73448,-1.687204 4.322052,-4.169996 0.186659,-0.78873 0.26867,-1.532066 0.285685,-2.5894053 0.0069,-0.4286674 0.01672,-0.9215006 0.02182,-1.0951848 l 0.0093,-0.3157894 H 12.00646 5.261371 l 0.015748,0.073908 c 0.00866,0.04065 0.027797,0.4246361 0.042523,0.8533035 0.062839,1.829221 0.1304046,2.470911 0.3508974,3.332587 0.4526266,1.768845 1.4344497,2.94714 2.9296849,3.515941 0.4495608,0.171017 0.9975332,0.305925 1.4457417,0.355933 0.151875,0.01695 0.17336,0.02702 0.210406,0.09866 0.02269,0.04388 0.101243,0.181342 0.174558,0.305466 l 0.1333,0.225681 h 1.369787 1.369786 z m 6.416953,-0.862669 c 0.25056,-0.128175 0.32928,-0.513233 0.167126,-0.817496 -0.08813,-0.165357 -0.214993,-0.248084 -0.380457,-0.248084 -0.267421,0 -0.43286,0.160778 -0.491424,0.477578 -0.08409,0.454898 0.314633,0.787569 0.704755,0.588002 z M 4.4425546,15.943922 c 0.255002,-0.149787 0.2361787,-0.639296 -0.030574,-0.795088 -0.1181007,-0.06897 -0.3502362,-0.07079 -0.4528775,-0.0035 -0.2455772,0.160909 -0.2850846,0.497367 -0.085141,0.725091 0.045225,0.05151 0.1203038,0.1053 0.1668422,0.119538 0.1118349,0.03421 0.3023107,0.0124 0.40175,-0.04601 z M 20.098307,14.280071 c 0.190305,-0.138103 0.258213,-0.515057 0.133773,-0.742556 -0.06932,-0.126737 -0.245557,-0.234044 -0.384376,-0.234044 -0.125614,0 -0.313549,0.107567 -0.375645,0.215006 -0.08626,0.149255 -0.07649,0.432692 0.02062,0.597897 0.09765,0.166115 0.228846,0.23947 0.404056,0.225913 0.0715,-0.0055 0.161916,-0.03344 0.201568,-0.06222 z M 4.3426591,14.227822 c 0.2060838,-0.09779 0.2712263,-0.38731 0.1446301,-0.642788 -0.085173,-0.171883 -0.2071927,-0.254687 -0.3753071,-0.254687 -0.4333328,0 -0.6206001,0.688302 -0.2423006,0.890578 0.1169362,0.06253 0.3486299,0.0659 0.4729776,0.0069 z"
     id="path4" />
</svg>
