<?xml version="1.0" encoding="UTF-8" standalone="no"?>
<svg
   version="1.1"
   width="512"
   height="512"
   id="svg8"
   sodipodi:docname="vcredis.svg"
   inkscape:version="1.4 (86a8ad7, 2024-10-11)"
   xmlns:inkscape="http://www.inkscape.org/namespaces/inkscape"
   xmlns:sodipodi="http://sodipodi.sourceforge.net/DTD/sodipodi-0.dtd"
   xmlns="http://www.w3.org/2000/svg"
   xmlns:svg="http://www.w3.org/2000/svg">
  <defs
     id="defs8" />
  <sodipodi:namedview
     id="namedview8"
     pagecolor="#ffffff"
     bordercolor="#000000"
     borderopacity="0.25"
     inkscape:showpageshadow="2"
     inkscape:pageopacity="0.0"
     inkscape:pagecheckerboard="0"
     inkscape:deskcolor="#d1d1d1"
     inkscape:zoom="1"
     inkscape:cx="703"
     inkscape:cy="400.5"
     inkscape:window-width="1920"
     inkscape:window-height="1137"
     inkscape:window-x="1913"
     inkscape:window-y="1203"
     inkscape:window-maximized="1"
     inkscape:current-layer="svg8" />
  <path
     d="M 0,0.5 2.578125,0.48828125 C 13.904439,0.43584461 22.846522,4.9580923 32.3125,10.6875 c 160.2007,92.40952 -0.01648,0.04084 160.04883,92.50195 16.65426,9.57326 30.02619,17.59882 35.46881,37.15538 0.78428,3.79229 0.70121,7.58822 0.68729,11.44696 0.15511,66.53452 -0.0816,133.07165 0.2359,199.60536 0.0886,16.9613 -1.52444,30.36125 -13.46468,43.30207 -195.254571,114.53891 -0.2931,-0.0122 -195.207029,114.25781 -4.958686,1.99694 -9.89264,2.736 -14.7357456,3.03397 -27.6166674,0.43 -33.8429284,-8.69231 -56.6823664,-21.84861 -297.765319,-170.4835 314.287531,179.4955 -140.524839,-80.58186 -16.65426,-9.57326 -32.05912,-16.93591 -35.29203,-37.0228 -0.13625,-211.02488 0.0244,0.0155 -1.09998,-211.1849 -0.0886,-16.9613 -1.98214,-32.31253 13.6053,-42.9427 C -25.438435,7.6987692 -214.53548,118.49204 -25.501953,7.4174805 -16.843581,2.2098111 -10.061596,0.5153378 0,0.5 Z"
     fill="#659ad2"
     transform="translate(255.75,-0.375)"
     id="path1"
     sodipodi:nodetypes="cccccccccsccccccc" />
  <path
     d="M -0.87912922,-0.68580674 C 0.10742278,0.823872 1.3883436,3.1325116 2.0258883,4.7168544 l 1.1008924,2.6829235 c 1.3590823,3.6023871 1.8895687,4.4382931 2.1480654,10.6196541 0.4807722,85.713258 -0.00305,0.01114 0.2154433,204.962338 0.1013682,16.98025 -1.4965434,30.38599 -13.4512176,43.34245 -6.1096788,5.81884 -13.7942938,9.50935 -21.0749608,13.63002 -7.926781,4.47949 -9.570884,5.60138 -174.132081,100.62779 -6.46534,3.23713 -9.14956,3.09466 -16.23828,3.10547 l -5.79687,0.0117 c -11.32632,0.0524 -20.3934,-4.28231 -29.85938,-10.01172 -11.61609,-6.89177 -64.56033,-37.65806 -160.04883,-92.50193 -16.83485,-9.67707 -21.80026,-14.3345 -24.91422,-18.19796 -1.77104,-2.19731 -3.26814,-3.44174 -4.5295,-7.06892 90.17635,-53.16161 90.31777,-52.92957 90.22922,-53.12838 1.50781,2.11719 2.83364,4.3269 4.45083,7.08471 3.80135,6.1732 8.15831,11.63154 12.875,17.125 l 2.08203,2.49219 C -324.94746,241.07204 -313.14607,250.31033 -300,258 l 1.8833,1.12793 c 33.28293,19.72259 73.679,24.83286 111.1167,15.87207 26.55861,-7.32173 48.50072,-19.75098 69,-38 l 2.13672,-1.87891 c 4.70991,-4.41369 8.60937,-9.46668 12.55078,-14.55859 l 1.6582,-2.1333 c 3.721185,-4.90303 6.8037,-9.97626 9.6543,-15.4292 -22.19024,-11.78933 -43.63655,-23.79054 -64.99458,-36.41443 l -0.78706,2.34865 C -164.48772,184.15431 -181.27953,192.84523 -196,199 c -6.81194,2.53433 -13.69848,4.69321 -21,5 l -3.48047,0.19141 C -239.89561,204.93229 -257.22679,198.73256 -272,186 l -2.00781,-1.57422 C -289.03329,172.25809 -296.82918,153.89776 -299,135 c -1.84531,-21.48251 4.76934,-40.431246 18.47266,-57.097656 C -268.24327,63.795593 -251.47089,54.780782 -233,52 c 22.89836,-1.479516 44.24565,4.553916 61.75,19.75 0.99834,0.944729 10.59835,11.591917 13.25,18.25 0.0115,-0.03991 5.18736,-3.00563 66.635742,-38.401856 90.43985984,-52.18479391 0.29681,-0.106644 90.48512878,-52.28395074 z"
     fill="#00599c"
     transform="translate(479,128)"
     id="path2"
     sodipodi:nodetypes="ccccccccccccsccccccccccccccccccccccccccc" />
  <path
     d="M 0,0 2.390625,2.0507813 4.84375,4.1328125 C 14.281297,12.368408 22.397681,21.272681 29.515625,31.550781 l 1.435303,2.068604 c 2.127888,3.157853 3.089817,4.492831 5.054663,8.044161 0.09463,0.01889 0.0019,0.0069 -66.614966,38.387235 -1.515625,-1.941406 -1.515625,-1.941406 -3.25,-4.5625 -12.471609,-18.15907 -29.89908,-28.109362 -51.4375,-32.125 -1.434985,-0.134438 -2.873443,-0.232683 -4.3125,-0.3125 l -3.488281,-0.195312 c -21.184024,-0.791335 -39.783244,7.076836 -55.511714,21.195312 -14.33715,15.069074 -22.56198,33.660494 -22.35328,54.549809 0.37193,11.86431 3.23797,22.73612 8.35328,33.45019 l 1.375,2.94531 c 9.53599,17.92584 26.41833,30.06638 45.58203,35.96485 21.020908,5.57274 41.646324,1.09136 60.355465,-9.22266 10.890322,-6.70061 19.783325,-13.83222 25.626626,-25.17927 65.815724,36.8853 -1.043019,-0.57443 65.060874,36.49177 -1.431302,5.47113 -4.046743,9.22293 -7.4375,13.625 l -1.618896,2.12354 c -18.6706688,24.17241 -42.280532,41.83406 -70.943604,52.25146 l -3.394531,1.33594 c -35.360586,13.09651 -75.756094,9.81979 -109.805424,-5.52735 -13.11175,-6.14763 -24.78536,-13.39898 -35.80004,-22.80859 l -1.57715,-1.33545 c -12.64245,-10.81061 -23.05093,-23.30092 -31.42285,-37.66455 l -1.06202,-1.81592 c -19.3173,-33.49579 -25.31542,-74.18222 -15.83642,-111.754391 10.87875,-40.026286 35.93205,-74.0201649 71.87256,-95.028321 15.1011,-8.582406 31.79666,-15.53447 49.02587,-18.401367 l 3.32422,-0.558593 C -77.217091,-38.675527 -32.92179,-27.346325 0,0 Z"
     fill="#fefefe"
     transform="translate(351.60937,137.94922)"
     id="path3"
     sodipodi:nodetypes="ccccccccccccccccccccccccccccccccc" />
  <path
     d="M -2.1205351,-1.9278082 C -0.61272265,0.18937933 0.67922754,2.3363975 2.59375,5.25 6.9254303,11.290618 11.283309,16.506537 16,22 l 2.082031,2.492187 C 28.052543,36.072039 39.85393,45.31033 53,53 l 1.883301,1.12793 C 88.166229,73.850524 128.5623,78.960794 166,70 192.55861,62.67827 214.50072,50.249022 235,32 l 2.13672,-1.878906 C 246.55808,21.292267 254.37329,9.045913 261,-1.984375 c 91.3119,53.241082 0.32763,0.245741 91.31641,53.234375 -0.83733,2.199581 -6.11803,9.353162 -7.813,10.735569 -6.86391,5.598156 -8.12019,5.93206 -15.42529,10.174587 0,0 10e-4,0.0012 -179.24609,103.421874 -6.46534,3.23713 -9.05581,3.18841 -16.14453,3.19922 l -5.73437,0.0117 c -11.32632,0.0524 -20.66014,-4.18271 -30.126115,-9.91212 0,0 0.0046,-0.0128 -159.938343,-92.695283 C -89.138911,61.843128 -91.03771,54.949508 -93.048656,51.78192 c 90.7790309,-53.0826405 0.0042,-0.0011 90.9281209,-53.7097282 z"
     fill="#004482"
     transform="translate(126,333)"
     id="path4"
     sodipodi:nodetypes="cccccccccccscccccccc" />
  <path
     d="m 0,0 c 7.5311008,5.9115092 12.508986,11.892982 17.34375,20.21875 l 1.61206,2.808978 c -65.736768,38.696386 -0.06312,0.049 -81.246822,47.86778 -3.278295,1.888477 -6.556162,3.777695 -9.833984,5.666992 l -3.212402,1.849609 c -5.534447,3.190516 -11.056537,6.400675 -16.561035,9.642578 l -3.358887,1.974366 c -2.121051,1.248325 -4.239961,2.500296 -6.35645,3.756347 l -2.85498,1.679444 -2.51367,1.488037 C -109,98 -109.48614,99.51365 -111.48614,99.51365 L -112,100 c -9.49318,-21.249121 -14.04935,-42.487232 -6,-65 8.2995,-20.605657 23.467163,-36.5317908 44,-45.3125 C -48.631452,-19.489225 -22.070839,-15.279812 0,0 Z"
     fill="#659ad2"
     transform="translate(302,195)"
     id="path5"
     sodipodi:nodetypes="cccccccccccccccc" />
  <path
     d="M -1.8891859,-1.3523838 C 19.293426,11.292798 41.638525,25.089613 62.948164,37.523034 58.008435,47.596327 48.79206,56.200464 39.707031,62.160156 21.307452,73.341379 0.12476522,78.537547 -21.125,73.4375 -32.729276,70.369947 -42.90569,64.840532 -52,57 l -2.042969,-1.609375 C -64.330615,47.033156 -68.879774,38.222254 -69.071708,37.845107 -55.831357,30.293103 -25.339519,12.099606 -1.8891859,-1.3523838 Z"
     fill="#014482"
     transform="translate(259,257)"
     id="path6"
     sodipodi:nodetypes="cccccccc" />
  <path
     d="M0 0 C5.61 0 11.22 0 17 0 C17 5.61 17 11.22 17 17 C22.61 17 28.22 17 34 17 C34 22.28 34 27.56 34 33 C28.39 33 22.78 33 17 33 C17 38.61 17 44.22 17 50 C11.39 50 5.78 50 0 50 C0 44.72 0 39.44 0 34 C-5.61 34 -11.22 34 -17 34 C-17 28.06 -17 22.12 -17 16 C-11.39 16 -5.78 16 0 16 C0 10.72 0 5.44 0 0 Z "
     fill="#F9FBFC"
     transform="translate(437,231)"
     id="path7" />
  <path
     d="M0 0 C5.61 0 11.22 0 17 0 C17 5.61 17 11.22 17 17 C22.28 17 27.56 17 33 17 C33 22.28 33 27.56 33 33 C27.72 33 22.44 33 17 33 C17 38.61 17 44.22 17 50 C11.39 50 5.78 50 0 50 C0 44.39 0 38.78 0 33 C-5.61 33 -11.22 33 -17 33 C-17 27.72 -17 22.44 -17 17 C-11.39 17 -5.78 17 0 17 C0 11.39 0 5.78 0 0 Z "
     fill="#FDFEFE"
     transform="translate(374,231)"
     id="path8" />
</svg>
